<svg id="SvgjsSvg1018" width="288" height="288" xmlns="http://www.w3.org/2000/svg" version="1.1" xmlns:xlink="http://www.w3.org/1999/xlink" xmlns:svgjs="http://svgjs.com/svgjs"><defs id="SvgjsDefs1019"></defs><g id="SvgjsG1020"><svg xmlns="http://www.w3.org/2000/svg" enable-background="new 0 0 32 32" viewBox="0 0 32 32" width="288" height="288"><path d="M16,0.5C7.45001,0.5,0.5,7.45001,0.5,16S7.45001,31.5,16,31.5S31.5,24.54999,31.5,16S24.54999,0.5,16,0.5z M26.54999,22.67999C24.39001,19.59998,20.44,17.64001,16,17.64001s-8.40002,1.95996-10.53998,5.06C4.22998,20.76001,3.5,18.45996,3.5,16C3.5,9.10999,9.10999,3.5,16,3.5S28.5,9.10999,28.5,16C28.5,18.45996,27.78003,20.75,26.54999,22.67999z" fill="#ffffff" class="color000 svgShape"></path><circle cx="16" cy="11" r="4.97" fill="#ffffff" class="color000 svgShape"></circle></svg></g></svg>